<svg width="61" height="49" viewBox="0 0 61 49" fill="none" xmlns="http://www.w3.org/2000/svg">
<path d="M47.6877 8.07602C47.6737 8.04876 47.6504 8.02741 47.622 8.01577C44.3436 6.51036 40.8838 5.43689 37.3294 4.82221C37.2971 4.8162 37.2638 4.82054 37.2341 4.8346C37.2044 4.84866 37.1799 4.87173 37.1641 4.90053C36.693 5.75628 36.2653 6.63527 35.8827 7.53415C32.0513 6.95207 28.154 6.95207 24.3226 7.53415C23.9374 6.63298 23.5029 5.75377 23.021 4.90053C23.0045 4.87236 22.9798 4.84982 22.9503 4.83585C22.9208 4.82188 22.8878 4.81713 22.8555 4.82221C19.3008 5.4356 15.8408 6.50915 12.5628 8.01586C12.5347 8.02776 12.511 8.04809 12.495 8.07404C5.93959 17.8716 4.14381 27.4283 5.02476 36.8666C5.02723 36.8897 5.03433 36.9121 5.04564 36.9324C5.05694 36.9528 5.07221 36.9706 5.09054 36.9849C8.90771 39.8135 13.1773 41.9726 17.717 43.3701C17.749 43.3797 17.7831 43.3792 17.8148 43.3688C17.8465 43.3584 17.8743 43.3386 17.8944 43.3119C18.8694 41.9841 19.7334 40.5782 20.4775 39.1083C20.4877 39.0881 20.4935 39.066 20.4946 39.0434C20.4957 39.0208 20.4919 38.9982 20.4837 38.9772C20.4754 38.9561 20.4627 38.9371 20.4466 38.9213C20.4304 38.9055 20.4111 38.8933 20.3898 38.8855C19.0274 38.3638 17.7085 37.7349 16.4454 37.0047C16.4224 36.9912 16.4031 36.9723 16.3892 36.9496C16.3753 36.9268 16.3673 36.901 16.3657 36.8744C16.3641 36.8479 16.3691 36.8213 16.3802 36.7971C16.3913 36.7729 16.4083 36.7518 16.4294 36.7357C16.6945 36.537 16.9597 36.3302 17.2128 36.1214C17.2353 36.1029 17.2625 36.091 17.2913 36.0871C17.3202 36.0832 17.3496 36.0875 17.3762 36.0994C25.6515 39.8791 34.6107 39.8791 42.7882 36.0994C42.8148 36.0867 42.8445 36.0819 42.8738 36.0854C42.9031 36.089 42.9308 36.1008 42.9536 36.1194C43.2068 36.3282 43.4719 36.537 43.7389 36.7357C43.7602 36.7516 43.7773 36.7726 43.7886 36.7967C43.7999 36.8208 43.8051 36.8473 43.8037 36.8739C43.8023 36.9005 43.7944 36.9264 43.7807 36.9492C43.767 36.972 43.7478 36.9911 43.725 37.0047C42.4647 37.7411 41.1446 38.3696 39.7786 38.8835C39.7574 38.8916 39.7381 38.9041 39.7221 38.9201C39.706 38.9362 39.6935 38.9554 39.6854 38.9766C39.6773 38.9979 39.6737 39.0205 39.675 39.0432C39.6762 39.0659 39.6822 39.0881 39.6926 39.1083C40.4492 40.57 41.3119 41.9742 42.2737 43.3096C42.2932 43.3369 42.3209 43.3575 42.3527 43.3683C42.3846 43.3791 42.419 43.3797 42.4511 43.3698C46.999 41.9771 51.276 39.8178 55.098 36.9849C55.1166 36.9713 55.1321 36.9539 55.1434 36.9339C55.1548 36.9138 55.1617 36.8915 55.1637 36.8686C56.2184 25.9569 53.3981 16.4785 47.6877 8.07602ZM21.7133 31.1196C19.2218 31.1196 17.1689 28.8314 17.1689 26.0212C17.1689 23.211 19.182 20.9225 21.7133 20.9225C24.2644 20.9225 26.2975 23.2308 26.2576 26.021C26.2576 28.8314 24.2445 31.1196 21.7133 31.1196ZM38.5153 31.1196C36.0239 31.1196 33.971 28.8314 33.971 26.0212C33.971 23.211 35.9841 20.9225 38.5153 20.9225C41.0666 20.9225 43.0995 23.2308 43.0597 26.021C43.0597 28.8314 41.0666 31.1196 38.5153 31.1196Z" fill="white"/>
</svg>
