<svg width="51" height="39" viewBox="0 0 51 39" fill="none" xmlns="http://www.w3.org/2000/svg">
<path d="M42.8719 3.25644C42.8579 3.22918 42.8346 3.20783 42.8062 3.19619C39.5278 1.69078 36.068 0.617313 32.5136 0.002633C32.4813 -0.003377 32.448 0.000963134 32.4183 0.0150231C32.3886 0.0290831 32.3641 0.052153 32.3483 0.080953C31.8772 0.936703 31.4495 1.81569 31.0669 2.71457C27.2355 2.13249 23.3382 2.13249 19.5068 2.71457C19.1216 1.8134 18.6871 0.934193 18.2052 0.080953C18.1887 0.052783 18.164 0.0302429 18.1345 0.0162729C18.105 0.00230293 18.072 -0.002447 18.0397 0.002633C14.485 0.616023 11.025 1.68957 7.747 3.19628C7.7189 3.20818 7.6952 3.22851 7.6792 3.25446C1.12379 13.052 -0.67199 22.6087 0.20896 32.047C0.21143 32.0701 0.21853 32.0925 0.22984 32.1128C0.24114 32.1332 0.25641 32.151 0.27474 32.1653C4.09191 34.9939 8.3615 37.153 12.9012 38.5505C12.9332 38.5601 12.9673 38.5596 12.999 38.5492C13.0307 38.5388 13.0585 38.519 13.0786 38.4923C14.0536 37.1645 14.9176 35.7586 15.6617 34.2887C15.6719 34.2685 15.6777 34.2464 15.6788 34.2238C15.6799 34.2012 15.6761 34.1786 15.6679 34.1576C15.6596 34.1365 15.6469 34.1175 15.6308 34.1017C15.6146 34.0859 15.5953 34.0737 15.574 34.0659C14.2116 33.5442 12.8927 32.9153 11.6296 32.1851C11.6066 32.1716 11.5873 32.1527 11.5734 32.13C11.5595 32.1072 11.5515 32.0814 11.5499 32.0548C11.5483 32.0283 11.5533 32.0017 11.5644 31.9775C11.5755 31.9533 11.5925 31.9322 11.6136 31.9161C11.8787 31.7174 12.1439 31.5106 12.397 31.3018C12.4195 31.2833 12.4467 31.2714 12.4755 31.2675C12.5044 31.2636 12.5338 31.2679 12.5604 31.2798C20.8357 35.0595 29.7949 35.0595 37.9724 31.2798C37.999 31.2671 38.0287 31.2623 38.058 31.2658C38.0873 31.2694 38.115 31.2812 38.1378 31.2998C38.391 31.5086 38.6561 31.7174 38.9231 31.9161C38.9444 31.932 38.9615 31.953 38.9728 31.9771C38.9841 32.0012 38.9893 32.0277 38.9879 32.0543C38.9865 32.0809 38.9786 32.1068 38.9649 32.1296C38.9512 32.1524 38.932 32.1715 38.9092 32.1851C37.6489 32.9215 36.3288 33.55 34.9628 34.0639C34.9416 34.072 34.9223 34.0845 34.9063 34.1005C34.8902 34.1166 34.8777 34.1358 34.8696 34.157C34.8615 34.1783 34.8579 34.2009 34.8592 34.2236C34.8604 34.2463 34.8664 34.2685 34.8768 34.2887C35.6334 35.7504 36.4961 37.1546 37.4579 38.49C37.4774 38.5173 37.5051 38.5379 37.5369 38.5487C37.5688 38.5595 37.6032 38.5601 37.6353 38.5502C42.1832 37.1575 46.4602 34.9982 50.2822 32.1653C50.3008 32.1517 50.3163 32.1343 50.3276 32.1143C50.339 32.0942 50.3459 32.0719 50.3479 32.049C51.4026 21.1373 48.5823 11.6589 42.8719 3.25644ZM16.8975 26.3C14.406 26.3 12.3531 24.0118 12.3531 21.2016C12.3531 18.3914 14.3662 16.1029 16.8975 16.1029C19.4486 16.1029 21.4817 18.4112 21.4418 21.2014C21.4418 24.0118 19.4287 26.3 16.8975 26.3ZM33.6995 26.3C31.2081 26.3 29.1552 24.0118 29.1552 21.2016C29.1552 18.3914 31.1683 16.1029 33.6995 16.1029C36.2508 16.1029 38.2837 18.4112 38.2439 21.2014C38.2439 24.0118 36.2508 26.3 33.6995 26.3Z" fill="white"/>
</svg>
