<svg width="178" height="173" viewBox="0 0 178 173" fill="none" xmlns="http://www.w3.org/2000/svg">
<path fill-rule="evenodd" clip-rule="evenodd" d="M88.6588 0.000976562C39.6899 0.000976562 0.000976562 39.6899 0.000976562 88.6588C0.000976562 127.823 25.3965 161.059 60.6321 172.792C65.0676 173.592 66.6676 170.863 66.6676 168.517C66.6676 166.41 66.5965 160.828 66.5699 153.441C41.9032 158.792 36.6943 141.548 36.6943 141.548C32.6765 131.308 26.8543 128.579 26.8543 128.579C18.8099 123.077 27.4676 123.201 27.4676 123.201C36.3743 123.823 41.041 132.339 41.041 132.339C48.9521 145.885 61.8054 141.974 66.8365 139.708C67.6454 133.974 69.9565 130.063 72.481 127.85C52.801 125.619 32.1076 118.01 32.1076 84.0276C32.1076 74.3654 35.5654 66.4365 41.2099 60.2499C40.3121 58.001 37.2454 48.9788 42.0899 36.7832C42.0899 36.7832 49.5299 34.3921 66.4632 45.8588C73.6951 43.8914 81.1551 42.8872 88.6499 42.8721C96.1448 42.8842 103.605 43.8885 110.837 45.8588C127.779 34.3832 135.21 36.7832 135.21 36.7832C140.054 48.9788 137.014 58.001 136.09 60.2499C141.779 66.4365 145.192 74.3565 145.192 84.0276C145.192 118.099 124.481 125.583 104.73 127.779C107.885 130.517 110.73 135.921 110.73 144.188C110.73 156.045 110.623 165.61 110.623 168.517C110.623 170.89 112.205 173.645 116.73 172.774C151.948 161.023 177.317 127.814 177.317 88.6588C177.317 39.6899 137.628 0.000976562 88.6588 0.000976562Z" fill="white" stroke="white" stroke-width="0.00213333"/>
</svg>
