<svg width="49" height="49" viewBox="0 0 49 49" fill="none" xmlns="http://www.w3.org/2000/svg">
<path d="M47.4593 15.9441C47.7655 16.7768 47.5071 17.7051 46.8468 18.2984L42.7028 22.0691C42.8081 22.8635 42.8655 23.677 42.8655 24.5C42.8655 25.323 42.8081 26.1365 42.7028 26.9309L46.8468 30.7016C47.5071 31.2949 47.7655 32.2232 47.4593 33.0559C47.0382 34.1947 46.531 35.2857 45.9472 36.3385L45.4974 37.1137C44.8657 38.1664 44.1575 39.1617 43.3823 40.0996C42.8177 40.7887 41.8798 41.0184 41.0376 40.7504L35.7069 39.0564C34.4245 40.0422 33.0081 40.8652 31.496 41.4873L30.2997 46.952C30.1083 47.8229 29.4384 48.5119 28.5579 48.6555C27.2372 48.8756 25.8782 48.9904 24.4905 48.9904C23.1028 48.9904 21.7438 48.8756 20.4231 48.6555C19.5427 48.5119 18.8728 47.8229 18.6813 46.952L17.4851 41.4873C15.9729 40.8652 14.5565 40.0422 13.2741 39.0564L7.95303 40.76C7.11084 41.0279 6.17295 40.7887 5.6083 40.1092C4.83311 39.1713 4.1249 38.176 3.49326 37.1232L3.04346 36.348C2.45967 35.2953 1.95244 34.2043 1.53135 33.0654C1.2251 32.2328 1.4835 31.3045 2.14385 30.7111L6.28779 26.9404C6.18252 26.1365 6.1251 25.323 6.1251 24.5C6.1251 23.677 6.18252 22.8635 6.28779 22.0691L2.14385 18.2984C1.4835 17.7051 1.2251 16.7768 1.53135 15.9441C1.95244 14.8053 2.45967 13.7143 3.04346 12.6615L3.49326 11.8863C4.1249 10.8336 4.83311 9.83828 5.6083 8.90039C6.17295 8.21133 7.11084 7.98164 7.95303 8.24961L13.2837 9.94355C14.5661 8.95781 15.9825 8.13477 17.4946 7.5127L18.6909 2.04805C18.8823 1.17715 19.5522 0.488086 20.4327 0.344531C21.7534 0.114844 23.1124 0 24.5001 0C25.8878 0 27.2468 0.114844 28.5675 0.334961C29.448 0.478516 30.1179 1.16758 30.3093 2.03848L31.5056 7.50313C33.0177 8.1252 34.4341 8.94824 35.7165 9.93398L41.0472 8.24004C41.8894 7.97207 42.8272 8.21133 43.3919 8.89082C44.1671 9.82871 44.8753 10.824 45.5069 11.8768L45.9567 12.652C46.5405 13.7047 47.0478 14.7957 47.4688 15.9346L47.4593 15.9441ZM24.5001 32.1562C26.5307 32.1562 28.4781 31.3496 29.9139 29.9138C31.3497 28.478 32.1563 26.5306 32.1563 24.5C32.1563 22.4694 31.3497 20.522 29.9139 19.0862C28.4781 17.6504 26.5307 16.8438 24.5001 16.8438C22.4695 16.8438 20.5221 17.6504 19.0863 19.0862C17.6505 20.522 16.8438 22.4694 16.8438 24.5C16.8438 26.5306 17.6505 28.478 19.0863 29.9138C20.5221 31.3496 22.4695 32.1562 24.5001 32.1562Z" fill="white"/>
</svg>
